<?xml version="1.0" standalone="no"?>
<svg xmlns="http://www.w3.org/2000/svg" viewBox="0 0 163.69140625 52" width="163.69140625" height="52"><rect fill="none" stroke="#000000" stroke-width="3" width="160.69140625" height="49" x="1.5" y="1.5"></rect><g fill="#656b42" color="#656b42" transform="translate(12, 12) scale(0.5384616)"><svg width="52.0" height="52.0" x="0.0" y="0.0" viewBox="0 0 52 52"><path fill="currentColor" fill-rule="evenodd" d="M18.22 33.35s9.278 9.366 25.673 11.515a26.024 26.024 0 0 1-4.652 3.512l-.054.034a25.875 25.875 0 0 1-13.82 3.58 26.054 26.054 0 0 1-4.701-.545c-.167-.035-.333-.078-.5-.116-2.487-6.099-2.5-12.173-2.247-15.465.12-1.574.301-2.515.301-2.515zM15.745 22.9S12.273 35.616 18.61 50.89a26.12 26.12 0 0 1-5.368-2.273l-.055-.03A25.865 25.865 0 0 1 3.175 38.408a26.147 26.147 0 0 1-1.878-4.343c-.054-.163-.099-.328-.15-.492 4.038-5.202 9.293-8.25 12.27-9.678 1.423-.683 2.328-.997 2.328-.997zm35.536-2.96c.445 1.86.695 3.795.716 5.786l.002.064a25.868 25.868 0 0 1-3.81 13.76 26.134 26.134 0 0 1-2.821 3.797c-.115.127-.235.249-.352.374-6.524-.895-11.79-3.921-14.516-5.786-1.302-.892-2.026-1.517-2.026-1.517S41.223 33.065 51.28 19.94zM6.983 8.25c6.525.895 11.792 3.922 14.517 5.786 1.302.89 2.026 1.517 2.026 1.517S10.778 18.904.718 32.028a26.047 26.047 0 0 1-.715-5.784L0 26.181A25.871 25.871 0 0 1 3.81 12.42a26.18 26.18 0 0 1 2.822-3.797c.114-.128.235-.25.351-.375zM33.39 1.07a26.021 26.021 0 0 1 5.368 2.272l.055.03a25.864 25.864 0 0 1 10.012 10.18 25.98 25.98 0 0 1 1.878 4.342c.053.163.098.327.149.492-4.038 5.203-9.292 8.25-12.27 9.678-1.422.682-2.327.997-2.327.997s3.471-12.719-2.865-27.991zM26.134 0l.503.007c1.582.04 3.157.221 4.7.545.167.036.333.079.5.117 2.487 6.098 2.499 12.172 2.247 15.465-.12 1.573-.301 2.515-.301 2.515S24.506 9.283 8.11 7.135a26.1 26.1 0 0 1 4.651-3.513c.019-.01.036-.023.055-.033A25.877 25.877 0 0 1 26.637.009z"></path></svg></g><path fill="#656b42" fill-rule="nonzero" d="M8.31 16.73L8.31 16.73Q6.64 17.64 5.30 17.64Q3.95 17.64 2.99 17.38Q2.03 17.13 1.36 16.64L1.36 16.64Q0 15.64 0 13.76L0 13.76Q0 12.07 1.66 10.95L1.66 10.95Q3.47 9.73 6.56 9.73L6.56 9.73L7.03 9.74Q7.17 9.75 7.35 9.76Q7.52 9.76 7.66 9.79L7.66 9.79Q7.57 7.91 6.05 7.59L6.05 7.59Q5.54 7.49 4.97 7.49Q4.41 7.49 3.86 7.59Q3.32 7.69 2.80 7.85L2.80 7.85Q1.66 8.21 1.17 8.68L1.17 8.68L1.14 8.66L0.79 6.07Q2.86 4.98 5.32 4.98L5.32 4.98Q9.14 4.98 10.21 7.73L10.21 7.73Q10.55 8.61 10.55 9.71L10.55 9.71L10.55 13.96Q10.55 15.32 11.51 15.81L11.51 15.81L9.39 17.75Q8.72 17.40 8.31 16.73ZM7.68 14.34L7.68 11.89Q7.36 11.84 7.02 11.84L7.02 11.84L6.55 11.84Q3.96 11.84 3.26 12.98L3.26 12.98Q3.05 13.32 3.05 13.70Q3.05 14.07 3.18 14.36Q3.32 14.65 3.63 14.84L3.63 14.84Q4.24 15.19 5.44 15.19Q6.64 15.19 7.69 14.61L7.69 14.61Q7.68 14.48 7.68 14.34L7.68 14.34ZM16.92 0L16.92 16.15Q16.92 17.16 16.97 17.46L16.97 17.46L13.99 17.46L13.99 0L16.92 0ZM19.63 11.44L19.63 11.44Q19.63 10.07 20.10 8.89Q20.57 7.72 21.42 6.84L21.42 6.84Q23.25 4.98 26.20 4.98L26.20 4.98Q28.70 4.98 30.21 6.63L30.21 6.63Q31.70 8.23 31.70 10.64L31.70 10.64Q31.70 11.57 31.56 11.91L31.56 11.91Q30.39 12.23 26.79 12.23L26.79 12.23L22.66 12.23Q22.97 13.49 24.08 14.19Q25.20 14.88 26.98 14.88L26.98 14.88Q28.84 14.88 30.18 14.21L30.18 14.21Q30.53 14.04 30.70 13.89L30.70 13.89Q30.68 14.38 30.64 14.89L30.64 14.89L30.52 16.72Q29.63 17.33 27.63 17.57L27.63 17.57Q27.05 17.64 26.51 17.64L26.51 17.64Q23.53 17.64 21.59 15.90L21.59 15.90Q19.63 14.16 19.63 11.44ZM28.58 9.96L28.58 9.96Q28.10 7.44 25.84 7.44L25.84 7.44Q24.06 7.44 23.13 8.98L23.13 8.98Q22.85 9.45 22.70 10.01L22.70 10.01Q22.98 10.02 23.39 10.03L23.39 10.03L24.26 10.03Q24.69 10.04 25.09 10.04L25.09 10.04L25.76 10.04Q26.36 10.04 26.93 10.03L26.93 10.03L27.89 10.00Q28.28 9.98 28.58 9.96ZM38.37 17.64L38.37 17.64Q35.06 17.64 33.39 16.43L33.39 16.43Q33.41 16.08 33.46 15.63L33.46 15.63L33.56 14.79Q33.66 13.96 33.68 13.75Q33.70 13.55 33.71 13.53Q33.73 13.51 33.90 13.72Q34.08 13.92 34.57 14.21Q35.06 14.51 35.71 14.73L35.71 14.73Q37.10 15.21 38.61 15.21L38.61 15.21Q40.64 15.21 40.64 13.86L40.64 13.86Q40.64 13.43 40.25 13.22L40.25 13.22Q39.56 12.87 38.22 12.69Q36.88 12.50 36.02 12.15Q35.17 11.80 34.63 11.31L34.63 11.31Q33.63 10.38 33.63 8.88L33.63 8.88Q33.63 7.05 35.04 6.01L35.04 6.01Q36.43 4.98 38.89 4.98L38.89 4.98Q41.33 4.98 43.05 6.36L43.05 6.36Q42.97 6.67 42.88 6.95L42.88 6.95Q42.61 7.72 42.48 8.06L42.48 8.06L42.21 8.75Q42.19 8.85 42.18 8.85L42.18 8.85Q42.15 8.85 41.99 8.60L41.99 8.60Q41.25 7.75 39.69 7.48L39.69 7.48Q39.21 7.38 38.71 7.38L38.71 7.38Q36.57 7.38 36.57 8.67L36.57 8.67Q36.57 9.12 37.02 9.35L37.02 9.35Q37.85 9.80 39.30 10.01Q40.75 10.22 41.50 10.58Q42.25 10.93 42.70 11.44L42.70 11.44Q43.55 12.35 43.55 13.86L43.55 13.86Q43.55 15.52 42.22 16.55L42.22 16.55Q40.84 17.64 38.37 17.64ZM49.43 17.46L44.50 5.21L47.81 5.21L50.67 13.28L53.44 5.21L56.68 5.21L51.84 17.46L49.43 17.46ZM57.46 11.40L57.46 11.40Q57.46 10.11 57.90 8.94Q58.34 7.76 59.16 6.88L59.16 6.88Q60.95 4.98 63.81 4.98L63.81 4.98Q66.66 4.98 68.33 6.77L68.33 6.77Q69.94 8.48 69.94 11.21L69.94 11.21Q69.94 13.95 68.29 15.74L68.29 15.74Q66.54 17.64 63.66 17.64L63.66 17.64Q60.68 17.64 58.99 15.77L58.99 15.77Q57.46 14.07 57.46 11.40ZM60.30 11.33L60.30 11.33Q60.30 12.07 60.55 12.76Q60.80 13.45 61.25 13.95L61.25 13.95Q62.23 15.01 63.81 15.01L63.81 15.01Q65.27 15.01 66.12 13.97L66.12 13.97Q66.94 12.96 66.94 11.34L66.94 11.34Q66.94 9.70 66.09 8.70L66.09 8.70Q65.19 7.62 63.62 7.62L63.62 7.62Q62.03 7.62 61.13 8.77L61.13 8.77Q60.30 9.82 60.30 11.33ZM75.09 0L75.09 16.15Q75.09 17.16 75.14 17.46L75.14 17.46L72.16 17.46L72.16 0L75.09 0ZM83.82 14.88L83.82 14.88Q85.34 14.88 85.90 14.10L85.90 14.10L85.99 14.10L86.03 16.82Q85.45 17.39 83.89 17.58L83.89 17.58Q83.47 17.64 82.85 17.64Q82.22 17.64 81.49 17.40Q80.75 17.17 80.24 16.64L80.24 16.64Q79.17 15.55 79.17 13.23L79.17 13.23L79.17 7.91L77.40 7.91Q77.39 7.57 77.39 7.22L77.39 7.22L77.39 5.41Q77.39 5.21 77.40 5.21L77.40 5.21L79.17 5.21L79.17 1.88L82.04 1.88L82.04 5.21L85.27 5.21L85.27 7.91L82.04 7.91L82.04 12.69Q82.04 14.53 83.06 14.79L83.06 14.79Q83.39 14.88 83.82 14.88ZM96.49 16.73L96.49 16.73Q94.83 17.64 93.48 17.64Q92.13 17.64 91.17 17.38Q90.21 17.13 89.54 16.64L89.54 16.64Q88.18 15.64 88.18 13.76L88.18 13.76Q88.18 12.07 89.85 10.95L89.85 10.95Q91.65 9.73 94.75 9.73L94.75 9.73L95.21 9.74Q95.36 9.75 95.53 9.76Q95.71 9.76 95.85 9.79L95.85 9.79Q95.75 7.91 94.23 7.59L94.23 7.59Q93.73 7.49 93.16 7.49Q92.59 7.49 92.04 7.59Q91.50 7.69 90.98 7.85L90.98 7.85Q89.85 8.21 89.36 8.68L89.36 8.68L89.32 8.66L88.97 6.07Q91.04 4.98 93.50 4.98L93.50 4.98Q97.32 4.98 98.39 7.73L98.39 7.73Q98.73 8.61 98.73 9.71L98.73 9.71L98.73 13.96Q98.73 15.32 99.69 15.81L99.69 15.81L97.57 17.75Q96.90 17.40 96.49 16.73ZM95.86 14.34L95.86 11.89Q95.54 11.84 95.20 11.84L95.20 11.84L94.73 11.84Q92.14 11.84 91.44 12.98L91.44 12.98Q91.23 13.32 91.23 13.70Q91.23 14.07 91.37 14.36Q91.50 14.65 91.82 14.84L91.82 14.84Q92.43 15.19 93.63 15.19Q94.83 15.19 95.87 14.61L95.87 14.61Q95.86 14.48 95.86 14.34L95.86 14.34Z" transform="translate(52 17.123046875)"></path></svg>